# Created by Metasequoia

mtllib BulletHE.mtl

v -0.000000 -0.101761 -0.017543
v 0.000000 -0.100463 0.003837
v -0.026001 -0.097041 0.003837
v -0.026336 -0.098294 -0.017543
v 0.026336 -0.098294 -0.017543
v 0.026001 -0.097041 0.003837
v 0.050881 -0.088127 -0.017543
v 0.050232 -0.087003 0.003837
v 0.071957 -0.071957 -0.017543
v 0.071041 -0.071041 0.003837
v 0.088127 -0.050881 -0.017543
v 0.087003 -0.050232 0.003837
v 0.098294 -0.026336 -0.017543
v 0.097041 -0.026001 0.003837
v 0.101761 0.000000 -0.017543
v 0.100463 0.000000 0.003837
v 0.098294 0.026336 -0.017543
v 0.097041 0.026001 0.003837
v 0.088127 0.050881 -0.017543
v 0.087003 0.050232 0.003837
v 0.071957 0.071957 -0.017543
v 0.071041 0.071041 0.003837
v 0.050881 0.088127 -0.017543
v 0.050232 0.087003 0.003837
v 0.026336 0.098294 -0.017543
v 0.026001 0.097041 0.003837
v 0.000000 0.101761 -0.017543
v 0.000000 0.100463 0.003837
v -0.026336 0.098294 -0.017543
v -0.026001 0.097041 0.003837
v -0.050881 0.088127 -0.017543
v -0.050232 0.087003 0.003837
v -0.071957 0.071957 -0.017543
v -0.071041 0.071041 0.003837
v -0.088127 0.050881 -0.017543
v -0.087003 0.050232 0.003837
v -0.098294 0.026336 -0.017543
v -0.097041 0.026001 0.003837
v -0.101761 0.000000 -0.017543
v -0.100463 0.000000 0.003837
v -0.098294 -0.026336 -0.017543
v -0.097041 -0.026001 0.003837
v -0.088127 -0.050881 -0.017543
v -0.087003 -0.050232 0.003837
v -0.071957 -0.071957 -0.017543
v -0.071041 -0.071041 0.003837
v -0.050881 -0.088127 -0.017543
v -0.050232 -0.087003 0.003837
v -0.025287 -0.094368 0.024966
v -0.048847 -0.084607 0.024966
v 0.000000 -0.097697 0.024966
v 0.025287 -0.094368 0.024966
v 0.048847 -0.084607 0.024966
v 0.069081 -0.069081 0.024966
v 0.084607 -0.048847 0.024966
v 0.094368 -0.025287 0.024966
v 0.097697 0.000000 0.024966
v 0.094368 0.025287 0.024966
v 0.084607 0.048847 0.024966
v 0.069081 0.069081 0.024966
v 0.048847 0.084607 0.024966
v 0.025287 0.094368 0.024966
v 0.000000 0.097697 0.024966
v -0.025287 0.094368 0.024966
v -0.048847 0.084607 0.024966
v -0.069081 0.069081 0.024966
v -0.084607 0.048847 0.024966
v -0.094368 0.025287 0.024966
v -0.097697 0.000000 0.024966
v -0.094368 -0.025287 0.024966
v -0.084607 -0.048847 0.024966
v -0.069081 -0.069081 0.024966
v -0.046738 -0.080956 0.045668
v -0.066101 -0.066101 0.045668
v -0.024196 -0.090293 0.045668
v 0.000000 -0.093480 0.045668
v 0.024196 -0.090293 0.045668
v 0.046738 -0.080956 0.045668
v 0.066101 -0.066101 0.045668
v 0.080956 -0.046738 0.045668
v 0.090293 -0.024196 0.045668
v 0.093480 0.000000 0.045668
v 0.090293 0.024196 0.045668
v 0.080956 0.046738 0.045668
v 0.066101 0.066101 0.045668
v 0.046738 0.080956 0.045668
v 0.024196 0.090293 0.045668
v 0.000000 0.093480 0.045668
v -0.024196 0.090293 0.045668
v -0.046738 0.080956 0.045668
v -0.066101 0.066101 0.045668
v -0.080956 0.046738 0.045668
v -0.090293 0.024196 0.045668
v -0.093480 0.000000 0.045668
v -0.090293 -0.024196 0.045668
v -0.080956 -0.046738 0.045668
v -0.062120 -0.062120 0.065760
v -0.076080 -0.043926 0.065760
v -0.043926 -0.076080 0.065760
v -0.022736 -0.084856 0.065760
v 0.000000 -0.087849 0.065760
v 0.022736 -0.084856 0.065760
v 0.043926 -0.076080 0.065760
v 0.062120 -0.062120 0.065760
v 0.076080 -0.043926 0.065760
v 0.084856 -0.022736 0.065760
v 0.087849 0.000000 0.065760
v 0.084856 0.022736 0.065760
v 0.076080 0.043926 0.065760
v 0.062120 0.062120 0.065760
v 0.043926 0.076080 0.065760
v 0.022736 0.084856 0.065760
v 0.000000 0.087849 0.065760
v -0.022736 0.084856 0.065760
v -0.043926 0.076080 0.065760
v -0.062120 0.062120 0.065760
v -0.076080 0.043926 0.065760
v -0.084856 0.022736 0.065760
v -0.087849 0.000000 0.065760
v -0.084856 -0.022736 0.065760
v -0.070024 -0.040426 0.085077
v -0.078102 -0.020928 0.085077
v -0.057173 -0.057173 0.085077
v -0.040426 -0.070024 0.085077
v -0.020928 -0.078102 0.085077
v 0.000000 -0.080856 0.085077
v 0.020928 -0.078102 0.085077
v 0.040426 -0.070024 0.085077
v 0.057173 -0.057173 0.085077
v 0.070024 -0.040426 0.085077
v 0.078102 -0.020928 0.085077
v 0.080856 0.000000 0.085077
v 0.078102 0.020928 0.085077
v 0.070024 0.040426 0.085077
v 0.057173 0.057173 0.085077
v 0.040426 0.070024 0.085077
v 0.020928 0.078102 0.085077
v 0.000000 0.080856 0.085077
v -0.020928 0.078102 0.085077
v -0.040426 0.070024 0.085077
v -0.057173 0.057173 0.085077
v -0.070024 0.040426 0.085077
v -0.078102 0.020928 0.085077
v -0.080856 0.000000 0.085077
v -0.070085 -0.018778 0.103455
v -0.072555 0.000000 0.103455
v -0.062836 -0.036277 0.103455
v -0.051304 -0.051304 0.103455
v -0.036277 -0.062836 0.103455
v -0.018778 -0.070085 0.103455
v 0.000000 -0.072555 0.103455
v 0.018778 -0.070085 0.103455
v 0.036277 -0.062836 0.103455
v 0.051304 -0.051304 0.103455
v 0.062836 -0.036277 0.103455
v 0.070085 -0.018778 0.103455
v 0.072555 0.000000 0.103455
v 0.070085 0.018778 0.103455
v 0.062836 0.036277 0.103455
v 0.051304 0.051304 0.103455
v 0.036277 0.062836 0.103455
v 0.018778 0.070085 0.103455
v 0.000000 0.072555 0.103455
v -0.018778 0.070085 0.103455
v -0.036277 0.062836 0.103455
v -0.051304 0.051304 0.103455
v -0.062836 0.036277 0.103455
v -0.070085 0.018778 0.103455
v -0.063024 0.000000 0.120735
v -0.060877 0.016311 0.120735
v -0.060877 -0.016311 0.120735
v -0.054581 -0.031512 0.120735
v -0.044562 -0.044565 0.120735
v -0.031512 -0.054581 0.120735
v -0.016311 -0.060877 0.120735
v 0.000000 -0.063024 0.120735
v 0.016311 -0.060877 0.120735
v 0.031512 -0.054581 0.120735
v 0.044562 -0.044565 0.120735
v 0.054581 -0.031512 0.120735
v 0.060877 -0.016311 0.120735
v 0.063024 0.000000 0.120735
v 0.060877 0.016311 0.120735
v 0.054581 0.031512 0.120735
v 0.044562 0.044562 0.120735
v 0.031512 0.054578 0.120735
v 0.016311 0.060877 0.120735
v 0.000000 0.063024 0.120735
v -0.016311 0.060877 0.120735
v -0.031512 0.054578 0.120735
v -0.044562 0.044562 0.120735
v -0.054581 0.031512 0.120735
v -0.050551 0.013544 0.136771
v -0.045324 0.026168 0.136771
v -0.052337 0.000000 0.136771
v -0.050551 -0.013544 0.136771
v -0.045324 -0.026168 0.136771
v -0.037007 -0.037007 0.136771
v -0.026168 -0.045324 0.136771
v -0.013544 -0.050551 0.136771
v 0.000000 -0.052337 0.136771
v 0.013544 -0.050551 0.136771
v 0.026168 -0.045324 0.136771
v 0.037007 -0.037007 0.136771
v 0.045324 -0.026168 0.136771
v 0.050551 -0.013544 0.136771
v 0.052337 0.000000 0.136771
v 0.050551 0.013544 0.136771
v 0.045324 0.026168 0.136771
v 0.037007 0.037007 0.136771
v 0.026168 0.045324 0.136771
v 0.013544 0.050551 0.136771
v 0.000000 0.052337 0.136771
v -0.013544 0.050551 0.136771
v -0.026168 0.045324 0.136771
v -0.037007 0.037007 0.136771
v -0.035147 0.020292 0.151426
v -0.028700 0.028700 0.151426
v -0.039203 0.010503 0.151426
v -0.040584 0.000000 0.151426
v -0.039203 -0.010506 0.151426
v -0.035147 -0.020292 0.151426
v -0.028700 -0.028700 0.151426
v -0.020292 -0.035147 0.151426
v -0.010503 -0.039203 0.151426
v 0.000000 -0.040584 0.151426
v 0.010503 -0.039203 0.151426
v 0.020292 -0.035147 0.151426
v 0.028700 -0.028700 0.151426
v 0.035147 -0.020292 0.151426
v 0.039203 -0.010506 0.151426
v 0.040584 0.000000 0.151426
v 0.039203 0.010503 0.151426
v 0.035147 0.020292 0.151426
v 0.028700 0.028700 0.151426
v 0.020292 0.035147 0.151426
v 0.010503 0.039203 0.151426
v 0.000000 0.040584 0.151426
v -0.010503 0.039203 0.151426
v -0.020292 0.035147 0.151426
v -0.019711 0.019708 0.164577
v -0.013938 0.024138 0.164577
v -0.024141 0.013935 0.164577
v -0.026924 0.007213 0.164577
v -0.027873 0.000000 0.164577
v -0.026924 -0.007213 0.164577
v -0.024141 -0.013938 0.164577
v -0.019711 -0.019711 0.164577
v -0.013938 -0.024141 0.164577
v -0.007213 -0.026924 0.164577
v 0.000000 -0.027873 0.164577
v 0.007213 -0.026924 0.164577
v 0.013938 -0.024141 0.164577
v 0.019711 -0.019711 0.164577
v 0.024141 -0.013938 0.164577
v 0.026924 -0.007213 0.164577
v 0.027873 0.000000 0.164577
v 0.026924 0.007213 0.164577
v 0.024141 0.013935 0.164577
v 0.019711 0.019708 0.164577
v 0.013938 0.024138 0.164577
v 0.007213 0.026924 0.164577
v 0.000000 0.027873 0.164577
v -0.007213 0.026924 0.164577
v -0.007155 0.012388 0.176110
v -0.003703 0.013819 0.176110
v -0.010115 0.010115 0.176110
v -0.012388 0.007152 0.176110
v -0.013819 0.003703 0.176110
v -0.014306 0.000000 0.176110
v -0.013819 -0.003703 0.176110
v -0.012388 -0.007155 0.176110
v -0.010115 -0.010115 0.176110
v -0.007155 -0.012388 0.176110
v -0.003703 -0.013819 0.176110
v 0.000000 -0.014306 0.176110
v 0.003703 -0.013819 0.176110
v 0.007155 -0.012388 0.176110
v 0.010115 -0.010115 0.176110
v 0.012388 -0.007155 0.176110
v 0.013819 -0.003703 0.176110
v 0.014306 0.000000 0.176110
v 0.013819 0.003703 0.176110
v 0.012388 0.007152 0.176110
v 0.010115 0.010115 0.176110
v 0.007155 0.012388 0.176110
v 0.003703 0.013819 0.176110
v 0.000000 0.014306 0.176110
v 0.000000 0.000000 0.185928
v 0.026336 -0.098294 -0.170185
v -0.000000 -0.101761 -0.170185
v -0.026336 -0.098294 -0.170185
v -0.050881 -0.088127 -0.170185
v -0.071957 -0.071954 -0.170185
v -0.088127 -0.050881 -0.170185
v -0.098294 -0.026336 -0.170185
v -0.101761 0.000000 -0.170185
v -0.098294 0.026340 -0.170185
v -0.088127 0.050881 -0.170185
v -0.071957 0.071957 -0.170185
v -0.050881 0.088127 -0.170185
v -0.026336 0.098294 -0.170185
v 0.000000 0.101761 -0.170185
v 0.026336 0.098294 -0.170185
v 0.050881 0.088127 -0.170185
v 0.071957 0.071957 -0.170185
v 0.088127 0.050881 -0.170185
v 0.098294 0.026340 -0.170185
v 0.101761 0.000000 -0.170185
v 0.098294 -0.026336 -0.170185
v 0.088127 -0.050881 -0.170185
v 0.071957 -0.071954 -0.170185
v 0.050881 -0.088127 -0.170185
# 313 vertices

vt 0.36071 0.06615
vt 0.26678 0.06615
vt 0.26618 0.00409
vt 0.36192 0.05796
vt 0.36131 -0.00409
vt 0.45645 -0.00409
vt 0.52372 -0.01412
vt 0.52311 0.04794
vt 0.42919 0.04794
vt 0.55794 0.03675
vt 0.46401 0.03675
vt 0.46341 -0.02530
vt 0.55854 -0.03688
vt 0.55794 0.02517
vt 0.46401 0.02517
vt 0.52311 0.01399
vt 0.42919 0.01399
vt 0.42858 -0.04807
vt 0.45584 0.00396
vt 0.36192 0.00396
vt 0.36131 -0.05809
vt 0.36131 -0.06628
vt 0.36071 -0.00423
vt 0.26678 -0.00423
vt 0.24480 -0.07207
vt 0.24419 -0.01001
vt 0.15027 -0.01001
vt 0.11423 -0.01301
vt 0.02031 -0.01301
vt 0.01970 -0.07507
vt -0.01970 -0.07507
vt -0.02031 -0.01301
vt -0.11423 -0.01301
vt -0.15027 -0.01001
vt -0.24419 -0.01001
vt -0.24480 -0.07207
vt -0.26678 -0.00423
vt -0.36071 -0.00423
vt -0.36131 -0.06628
vt -0.36131 -0.05809
vt -0.36192 0.00396
vt -0.45584 0.00396
vt -0.42858 -0.04807
vt -0.42919 0.01399
vt -0.52311 0.01399
vt -0.46401 0.02517
vt -0.55794 0.02517
vt -0.55854 -0.03688
vt -0.46341 -0.02530
vt -0.46401 0.03675
vt -0.55794 0.03675
vt -0.42919 0.04794
vt -0.52311 0.04794
vt -0.52372 -0.01412
vt -0.36192 0.05796
vt -0.45584 0.05796
vt -0.45645 -0.00409
vt -0.26618 0.00409
vt -0.26678 0.06615
vt -0.36071 0.06615
vt -0.14966 0.00988
vt -0.15027 0.07194
vt -0.24419 0.07194
vt -0.02031 0.07494
vt -0.11423 0.07494
vt -0.11484 0.01288
vt 0.11484 0.01288
vt 0.11423 0.07494
vt 0.02031 0.07494
vt 0.24419 0.07194
vt 0.15027 0.07194
vt 0.14966 0.00988
vt 0.24290 0.14494
vt 0.15156 0.14494
vt 0.15027 0.08290
vt 0.35941 0.13258
vt 0.26808 0.13258
vt 0.26678 0.07054
vt 0.45584 0.05306
vt 0.45455 0.11510
vt 0.36321 0.11510
vt 0.52311 0.03164
vt 0.52182 0.09369
vt 0.43049 0.09369
vt 0.55794 0.00776
vt 0.55664 0.06981
vt 0.46531 0.06981
vt 0.55664 0.04508
vt 0.46531 0.04508
vt 0.46401 -0.01696
vt 0.52182 0.02120
vt 0.43049 0.02120
vt 0.42919 -0.04084
vt 0.45455 -0.00021
vt 0.36321 -0.00021
vt 0.36192 -0.06225
vt 0.36071 -0.07973
vt 0.35941 -0.01769
vt 0.26808 -0.01769
vt 0.24419 -0.09210
vt 0.24290 -0.03005
vt 0.15156 -0.03005
vt 0.11423 -0.09849
vt 0.11294 -0.03645
vt 0.02160 -0.03645
vt -0.02160 -0.03645
vt -0.11294 -0.03645
vt -0.11423 -0.09849
vt -0.15156 -0.03005
vt -0.24290 -0.03005
vt -0.24419 -0.09210
vt -0.26808 -0.01769
vt -0.35941 -0.01769
vt -0.36071 -0.07973
vt -0.36192 -0.06225
vt -0.36321 -0.00021
vt -0.45455 -0.00021
vt -0.42919 -0.04084
vt -0.43049 0.02120
vt -0.52182 0.02120
vt -0.46401 -0.01696
vt -0.46531 0.04508
vt -0.55664 0.04508
vt -0.46531 0.06981
vt -0.55664 0.06981
vt -0.55794 0.00776
vt -0.43049 0.09369
vt -0.52182 0.09369
vt -0.52311 0.03164
vt -0.36321 0.11510
vt -0.45455 0.11510
vt -0.45584 0.05306
vt -0.26678 0.07054
vt -0.26808 0.13258
vt -0.35941 0.13258
vt -0.15027 0.08290
vt -0.15156 0.14494
vt -0.24290 0.14494
vt -0.02031 0.08930
vt -0.02160 0.15134
vt -0.11294 0.15134
vt 0.11294 0.15134
vt 0.02160 0.15134
vt 0.02031 0.08930
vt 0.11097 0.22673
vt 0.02358 0.22673
vt 0.02160 0.16470
vt 0.24290 0.15496
vt 0.24092 0.21698
vt 0.15353 0.21698
vt 0.35941 0.13612
vt 0.35744 0.19815
vt 0.27005 0.19815
vt 0.45258 0.17151
vt 0.36518 0.17151
vt 0.36321 0.10949
vt 0.51985 0.13889
vt 0.43246 0.13889
vt 0.43049 0.07687
vt 0.55467 0.10250
vt 0.46728 0.10250
vt 0.46531 0.04048
vt 0.55664 0.00281
vt 0.55467 0.06483
vt 0.46728 0.06483
vt 0.52182 -0.03357
vt 0.51985 0.02845
vt 0.43246 0.02845
vt 0.45455 -0.06620
vt 0.45258 -0.00417
vt 0.36518 -0.00417
vt 0.35744 -0.03081
vt 0.27005 -0.03081
vt 0.26808 -0.09283
vt 0.24092 -0.04964
vt 0.15353 -0.04964
vt 0.15156 -0.11167
vt 0.11097 -0.05939
vt 0.02358 -0.05939
vt 0.02160 -0.12141
vt -0.02160 -0.12141
vt -0.02358 -0.05939
vt -0.11097 -0.05939
vt -0.15156 -0.11167
vt -0.15353 -0.04964
vt -0.24092 -0.04964
vt -0.26808 -0.09283
vt -0.27005 -0.03081
vt -0.35744 -0.03081
vt -0.36518 -0.00417
vt -0.45258 -0.00417
vt -0.45455 -0.06620
vt -0.43246 0.02845
vt -0.51985 0.02845
vt -0.52182 -0.03357
vt -0.46728 0.06483
vt -0.55467 0.06483
vt -0.55664 0.00281
vt -0.46531 0.04048
vt -0.46728 0.10250
vt -0.55467 0.10250
vt -0.43049 0.07687
vt -0.43246 0.13889
vt -0.51985 0.13889
vt -0.36321 0.10949
vt -0.36518 0.17151
vt -0.45258 0.17151
vt -0.27005 0.19815
vt -0.35744 0.19815
vt -0.35941 0.13612
vt -0.15353 0.21698
vt -0.24092 0.21698
vt -0.24290 0.15496
vt -0.02358 0.22673
vt -0.11097 0.22673
vt -0.11294 0.16470
vt -0.02358 0.23846
vt -0.02621 0.30046
vt -0.10834 0.30046
vt 0.10834 0.30046
vt 0.02621 0.30046
vt 0.02358 0.23846
vt 0.24092 0.22544
vt 0.23829 0.28744
vt 0.15616 0.28744
vt 0.35481 0.26228
vt 0.27268 0.26228
vt 0.27005 0.20029
vt 0.45258 0.16471
vt 0.44995 0.22671
vt 0.36782 0.22671
vt 0.51722 0.18314
vt 0.43509 0.18314
vt 0.43246 0.12115
vt 0.55467 0.07255
vt 0.55204 0.13455
vt 0.46991 0.13455
vt 0.55204 0.08424
vt 0.46991 0.08424
vt 0.46728 0.02224
vt 0.51722 0.03565
vt 0.43509 0.03565
vt 0.43246 -0.02635
vt 0.44995 -0.00792
vt 0.36782 -0.00792
vt 0.36518 -0.06992
vt 0.35744 -0.10549
vt 0.35481 -0.04350
vt 0.27268 -0.04350
vt 0.23829 -0.06865
vt 0.15616 -0.06865
vt 0.15353 -0.13065
vt 0.11097 -0.14366
vt 0.10834 -0.08167
vt 0.02621 -0.08167
vt -0.02621 -0.08167
vt -0.10834 -0.08167
vt -0.11097 -0.14366
vt -0.15353 -0.13065
vt -0.15616 -0.06865
vt -0.23829 -0.06865
vt -0.27268 -0.04350
vt -0.35481 -0.04350
vt -0.35744 -0.10549
vt -0.36518 -0.06992
vt -0.36782 -0.00792
vt -0.44995 -0.00792
vt -0.43509 0.03565
vt -0.51722 0.03565
vt -0.51985 -0.02635
vt -0.46728 0.02224
vt -0.46991 0.08424
vt -0.55204 0.08424
vt -0.46991 0.13455
vt -0.55204 0.13455
vt -0.55467 0.07255
vt -0.43509 0.18314
vt -0.51722 0.18314
vt -0.51985 0.12115
vt -0.36782 0.22671
vt -0.44995 0.22671
vt -0.45258 0.16471
vt -0.27005 0.20029
vt -0.27268 0.26228
vt -0.35481 0.26228
vt -0.15616 0.28744
vt -0.23829 0.28744
vt -0.24092 0.22544
vt -0.15943 0.35571
vt -0.23502 0.35571
vt -0.23829 0.29375
vt -0.02948 0.37190
vt -0.10507 0.37190
vt -0.10834 0.30994
vt 0.10834 0.30994
vt 0.10507 0.37190
vt 0.02948 0.37190
vt 0.23829 0.29375
vt 0.23502 0.35571
vt 0.15943 0.35571
vt 0.35481 0.26248
vt 0.35154 0.32444
vt 0.27595 0.32444
vt 0.44668 0.28022
vt 0.37109 0.28022
vt 0.36782 0.21826
vt 0.51395 0.22606
vt 0.43836 0.22606
vt 0.43509 0.16410
vt 0.54877 0.16566
vt 0.47318 0.16566
vt 0.46991 0.10370
vt 0.55204 0.04116
vt 0.54877 0.10312
vt 0.47318 0.10312
vt 0.51722 -0.01925
vt 0.51395 0.04271
vt 0.43836 0.04271
vt 0.44995 -0.07341
vt 0.44668 -0.01145
vt 0.37109 -0.01145
vt 0.35154 -0.05567
vt 0.27595 -0.05567
vt 0.27268 -0.11763
vt 0.23502 -0.08694
vt 0.15943 -0.08694
vt 0.15616 -0.14890
vt 0.10507 -0.10313
vt 0.02948 -0.10313
vt 0.02621 -0.16508
vt -0.02621 -0.16508
vt -0.02948 -0.10313
vt -0.10507 -0.10313
vt -0.15616 -0.14890
vt -0.15943 -0.08694
vt -0.23502 -0.08694
vt -0.27268 -0.11763
vt -0.27595 -0.05567
vt -0.35154 -0.05567
vt -0.37109 -0.01145
vt -0.44668 -0.01145
vt -0.44995 -0.07341
vt -0.43836 0.04271
vt -0.51395 0.04271
vt -0.51722 -0.01925
vt -0.47318 0.10312
vt -0.54877 0.10312
vt -0.55204 0.04116
vt -0.46991 0.10370
vt -0.47318 0.16566
vt -0.54877 0.16566
vt -0.43509 0.16410
vt -0.43836 0.22606
vt -0.51395 0.22606
vt -0.36782 0.21826
vt -0.37109 0.28022
vt -0.44668 0.28022
vt -0.27595 0.32444
vt -0.35154 0.32444
vt -0.35481 0.26248
vt -0.27595 0.32218
vt -0.27983 0.38410
vt -0.34766 0.38410
vt -0.15943 0.35930
vt -0.16331 0.42122
vt -0.23114 0.42122
vt -0.02948 0.37852
vt -0.03336 0.44044
vt -0.10119 0.44044
vt 0.10119 0.44044
vt 0.03336 0.44044
vt 0.02948 0.37852
vt 0.23114 0.42122
vt 0.16331 0.42122
vt 0.15943 0.35930
vt 0.34766 0.38410
vt 0.27983 0.38410
vt 0.27595 0.32218
vt 0.44668 0.26967
vt 0.44280 0.33159
vt 0.37497 0.33159
vt 0.51395 0.20536
vt 0.51007 0.26728
vt 0.44224 0.26728
vt 0.54877 0.13363
vt 0.54489 0.19555
vt 0.47706 0.19555
vt 0.54489 0.12129
vt 0.47706 0.12129
vt 0.47318 0.05938
vt 0.51007 0.04957
vt 0.44224 0.04957
vt 0.43836 -0.01235
vt 0.44280 -0.01474
vt 0.37497 -0.01474
vt 0.37109 -0.07666
vt 0.35154 -0.12917
vt 0.34766 -0.06725
vt 0.27983 -0.06725
vt 0.23502 -0.16630
vt 0.23114 -0.10438
vt 0.16331 -0.10438
vt 0.10507 -0.18551
vt 0.10119 -0.12359
vt 0.03336 -0.12359
vt -0.03336 -0.12359
vt -0.10119 -0.12359
vt -0.10507 -0.18551
vt -0.16331 -0.10438
vt -0.23114 -0.10438
vt -0.23502 -0.16630
vt -0.27983 -0.06725
vt -0.34766 -0.06725
vt -0.35154 -0.12917
vt -0.37109 -0.07666
vt -0.37497 -0.01474
vt -0.44280 -0.01474
vt -0.43836 -0.01235
vt -0.44224 0.04957
vt -0.51007 0.04957
vt -0.47318 0.05938
vt -0.47706 0.12129
vt -0.54489 0.12129
vt -0.47706 0.19555
vt -0.54489 0.19555
vt -0.54877 0.13363
vt -0.44224 0.26728
vt -0.51007 0.26728
vt -0.51395 0.20536
vt -0.37497 0.33159
vt -0.44280 0.33159
vt -0.44668 0.26967
vt -0.37942 0.38035
vt -0.43834 0.38035
vt -0.44280 0.31848
vt -0.27983 0.37884
vt -0.28429 0.44072
vt -0.34321 0.44072
vt -0.16777 0.48340
vt -0.22669 0.48340
vt -0.23114 0.42153
vt -0.03781 0.50549
vt -0.09673 0.50549
vt -0.10119 0.44362
vt 0.10119 0.44362
vt 0.09673 0.50549
vt 0.03781 0.50549
vt 0.23114 0.42153
vt 0.22669 0.48340
vt 0.16777 0.48340
vt 0.34321 0.44072
vt 0.28429 0.44072
vt 0.27983 0.37884
vt 0.44280 0.31848
vt 0.43834 0.38035
vt 0.37942 0.38035
vt 0.50561 0.30643
vt 0.44669 0.30643
vt 0.44224 0.24455
vt 0.54043 0.22397
vt 0.48151 0.22397
vt 0.47706 0.16210
vt 0.54489 0.07673
vt 0.54043 0.13860
vt 0.48151 0.13860
vt 0.51007 -0.00573
vt 0.50561 0.05615
vt 0.44669 0.05615
vt 0.43834 -0.01778
vt 0.37942 -0.01778
vt 0.37497 -0.07966
vt 0.34766 -0.14002
vt 0.34321 -0.07814
vt 0.28429 -0.07814
vt 0.22669 -0.12083
vt 0.16777 -0.12083
vt 0.16331 -0.18270
vt 0.09673 -0.14292
vt 0.03781 -0.14292
vt 0.03336 -0.20479
vt -0.03336 -0.20479
vt -0.03781 -0.14292
vt -0.09673 -0.14292
vt -0.16331 -0.18270
vt -0.16777 -0.12083
vt -0.22669 -0.12083
vt -0.28429 -0.07814
vt -0.34321 -0.07814
vt -0.34766 -0.14002
vt -0.37497 -0.07966
vt -0.37942 -0.01778
vt -0.43834 -0.01778
vt -0.44669 0.05615
vt -0.50561 0.05615
vt -0.51007 -0.00573
vt -0.48151 0.13860
vt -0.54043 0.13860
vt -0.54489 0.07673
vt -0.47706 0.16210
vt -0.48151 0.22397
vt -0.54043 0.22397
vt -0.44224 0.24455
vt -0.44669 0.30643
vt -0.50561 0.30643
vt -0.45169 0.34316
vt -0.50062 0.34316
vt -0.50561 0.28133
vt -0.38442 0.42610
vt -0.43335 0.42610
vt -0.43834 0.36427
vt -0.28429 0.43199
vt -0.28928 0.49381
vt -0.33821 0.49381
vt -0.16777 0.47987
vt -0.17277 0.54170
vt -0.22169 0.54170
vt -0.03781 0.50466
vt -0.04281 0.56648
vt -0.09173 0.56648
vt 0.09173 0.56648
vt 0.04281 0.56648
vt 0.03781 0.50466
vt 0.22169 0.54170
vt 0.17277 0.54170
vt 0.16777 0.47987
vt 0.33821 0.49381
vt 0.28928 0.49381
vt 0.28429 0.43199
vt 0.43834 0.36427
vt 0.43335 0.42610
vt 0.38442 0.42610
vt 0.50561 0.28133
vt 0.50062 0.34316
vt 0.45169 0.34316
vt 0.54043 0.18883
vt 0.53544 0.25065
vt 0.48651 0.25065
vt 0.53544 0.15489
vt 0.48651 0.15489
vt 0.48151 0.09306
vt 0.50062 0.06238
vt 0.45169 0.06238
vt 0.44669 0.00056
vt 0.43335 -0.02056
vt 0.38442 -0.02056
vt 0.37942 -0.08238
vt 0.34321 -0.15010
vt 0.33821 -0.08827
vt 0.28928 -0.08827
vt 0.22669 -0.19798
vt 0.22169 -0.13616
vt 0.17277 -0.13616
vt 0.09673 -0.22277
vt 0.09173 -0.16094
vt 0.04281 -0.16094
vt -0.04281 -0.16094
vt -0.09173 -0.16094
vt -0.09673 -0.22277
vt -0.17277 -0.13616
vt -0.22169 -0.13616
vt -0.22669 -0.19798
vt -0.28928 -0.08827
vt -0.33821 -0.08827
vt -0.34321 -0.15010
vt -0.37942 -0.08238
vt -0.38442 -0.02056
vt -0.43335 -0.02056
vt -0.44669 0.00056
vt -0.45169 0.06238
vt -0.50062 0.06238
vt -0.48151 0.09306
vt -0.48651 0.15489
vt -0.53544 0.15489
vt -0.48651 0.25065
vt -0.53544 0.25065
vt -0.54043 0.18883
vt -0.49200 0.27537
vt -0.52995 0.27537
vt -0.53544 0.21359
vt -0.45169 0.31537
vt -0.45718 0.37715
vt -0.49512 0.37715
vt -0.38991 0.46841
vt -0.42785 0.46841
vt -0.43335 0.40663
vt -0.28928 0.48114
vt -0.29477 0.54292
vt -0.33272 0.54292
vt -0.17826 0.59561
vt -0.21620 0.59561
vt -0.22169 0.53383
vt -0.04281 0.56110
vt -0.04830 0.62288
vt -0.08624 0.62288
vt 0.08624 0.62288
vt 0.04830 0.62288
vt 0.04281 0.56110
vt 0.22169 0.53383
vt 0.21620 0.59561
vt 0.17826 0.59561
vt 0.33272 0.54292
vt 0.29477 0.54292
vt 0.28928 0.48114
vt 0.42785 0.46841
vt 0.38991 0.46841
vt 0.38442 0.40663
vt 0.49512 0.37715
vt 0.45718 0.37715
vt 0.45169 0.31537
vt 0.53544 0.21359
vt 0.52995 0.27537
vt 0.49200 0.27537
vt 0.52995 0.17000
vt 0.49200 0.17000
vt 0.48651 0.10822
vt 0.50062 0.00644
vt 0.49512 0.06821
vt 0.45718 0.06821
vt 0.42785 -0.02304
vt 0.38991 -0.02304
vt 0.38442 -0.08482
vt 0.33272 -0.09755
vt 0.29477 -0.09755
vt 0.28928 -0.15933
vt 0.21620 -0.15024
vt 0.17826 -0.15024
vt 0.17277 -0.21202
vt 0.09173 -0.23929
vt 0.08624 -0.17751
vt 0.04830 -0.17751
vt -0.04830 -0.17751
vt -0.08624 -0.17751
vt -0.09173 -0.23929
vt -0.17277 -0.21202
vt -0.17826 -0.15024
vt -0.21620 -0.15024
vt -0.29477 -0.09755
vt -0.33272 -0.09755
vt -0.33821 -0.15933
vt -0.38442 -0.08482
vt -0.38991 -0.02304
vt -0.42785 -0.02304
vt -0.45718 0.06821
vt -0.49512 0.06821
vt -0.50062 0.00644
vt -0.48651 0.10822
vt -0.49200 0.17000
vt -0.52995 0.17000
vt -0.49795 0.18380
vt -0.52400 0.18380
vt -0.52995 0.12207
vt -0.49200 0.23617
vt -0.49795 0.29790
vt -0.52400 0.29790
vt -0.46312 0.40810
vt -0.48918 0.40810
vt -0.49512 0.34637
vt -0.38991 0.44519
vt -0.39585 0.50691
vt -0.42191 0.50691
vt -0.30072 0.58759
vt -0.32678 0.58759
vt -0.33272 0.52586
vt -0.17826 0.58291
vt -0.18420 0.64464
vt -0.21026 0.64464
vt -0.05424 0.67417
vt -0.08030 0.67417
vt -0.08624 0.61244
vt 0.08624 0.61244
vt 0.08030 0.67417
vt 0.05424 0.67417
vt 0.21026 0.64464
vt 0.18420 0.64464
vt 0.17826 0.58291
vt 0.33272 0.52586
vt 0.32678 0.58759
vt 0.30072 0.58759
vt 0.42191 0.50691
vt 0.39585 0.50691
vt 0.38991 0.44519
vt 0.49512 0.34637
vt 0.48918 0.40810
vt 0.46312 0.40810
vt 0.52400 0.29790
vt 0.49795 0.29790
vt 0.49200 0.23617
vt 0.52995 0.12207
vt 0.52400 0.18380
vt 0.49795 0.18380
vt 0.48918 0.07359
vt 0.46312 0.07359
vt 0.45718 0.01186
vt 0.42785 -0.08695
vt 0.42191 -0.02522
vt 0.39585 -0.02522
vt 0.32678 -0.10590
vt 0.30072 -0.10590
vt 0.29477 -0.16763
vt 0.21620 -0.22467
vt 0.21026 -0.16295
vt 0.18420 -0.16295
vt 0.08030 -0.19248
vt 0.05424 -0.19248
vt 0.04830 -0.25420
vt -0.04830 -0.25420
vt -0.05424 -0.19248
vt -0.08030 -0.19248
vt -0.18420 -0.16295
vt -0.21026 -0.16295
vt -0.21620 -0.22467
vt -0.29477 -0.16763
vt -0.30072 -0.10590
vt -0.32678 -0.10590
vt -0.39585 -0.02522
vt -0.42191 -0.02522
vt -0.42785 -0.08695
vt -0.45718 0.01186
vt -0.46312 0.07359
vt -0.48918 0.07359
vt -0.46312 0.01679
vt -0.46946 0.07847
vt -0.48284 0.07847
vt -0.50429 0.19617
vt -0.51766 0.19617
vt -0.52400 0.13449
vt -0.49795 0.25635
vt -0.50429 0.31803
vt -0.51766 0.31803
vt -0.46946 0.43574
vt -0.48284 0.43574
vt -0.48918 0.37406
vt -0.39585 0.47959
vt -0.40219 0.54127
vt -0.41557 0.54127
vt -0.30706 0.62744
vt -0.32043 0.62744
vt -0.32678 0.56576
vt -0.18420 0.62668
vt -0.19054 0.68837
vt -0.20392 0.68837
vt -0.06058 0.71991
vt -0.07396 0.71991
vt -0.08030 0.65822
vt 0.08030 0.65822
vt 0.07396 0.71991
vt 0.06058 0.71991
vt 0.20392 0.68837
vt 0.19054 0.68837
vt 0.18420 0.62668
vt 0.32678 0.56576
vt 0.32043 0.62744
vt 0.30706 0.62744
vt 0.41557 0.54127
vt 0.40219 0.54127
vt 0.39585 0.47959
vt 0.48918 0.37406
vt 0.48284 0.43574
vt 0.46946 0.43574
vt 0.51766 0.31803
vt 0.50429 0.31803
vt 0.49795 0.25635
vt 0.52400 0.13449
vt 0.51766 0.19617
vt 0.50429 0.19617
vt 0.48284 0.07847
vt 0.46946 0.07847
vt 0.46312 0.01679
vt 0.42191 -0.08874
vt 0.41557 -0.02706
vt 0.40219 -0.02706
vt 0.32043 -0.11323
vt 0.30706 -0.11323
vt 0.30072 -0.17491
vt 0.21026 -0.23584
vt 0.20392 -0.17416
vt 0.19054 -0.17416
vt 0.07396 -0.20570
vt 0.06058 -0.20570
vt 0.05424 -0.26738
vt -0.05424 -0.26738
vt -0.06058 -0.20570
vt -0.07396 -0.20570
vt -0.19054 -0.17416
vt -0.20392 -0.17416
vt -0.21026 -0.23584
vt -0.30072 -0.17491
vt -0.30706 -0.11323
vt -0.32043 -0.11323
vt -0.40219 -0.02706
vt -0.41557 -0.02706
vt -0.42191 -0.08874
vt -0.40219 -0.09018
vt -0.40888 -0.02854
vt -0.41557 -0.09018
vt -0.46946 0.02118
vt -0.47615 0.08282
vt -0.48284 0.02118
vt -0.50429 0.14538
vt -0.51098 0.20702
vt -0.51766 0.14538
vt -0.50429 0.27397
vt -0.51098 0.33561
vt -0.51766 0.27397
vt -0.46946 0.39817
vt -0.47615 0.45981
vt -0.48284 0.39817
vt -0.40219 0.50953
vt -0.40888 0.57117
vt -0.41557 0.50953
vt -0.30706 0.60046
vt -0.31375 0.66210
vt -0.32043 0.60046
vt -0.19054 0.66475
vt -0.19723 0.72639
vt -0.20392 0.66475
vt -0.06058 0.69803
vt -0.06727 0.75967
vt -0.07396 0.69803
vt 0.07396 0.69803
vt 0.06727 0.75967
vt 0.06058 0.69803
vt 0.20392 0.66475
vt 0.19723 0.72639
vt 0.19054 0.66475
vt 0.32043 0.60046
vt 0.31375 0.66210
vt 0.30706 0.60046
vt 0.41557 0.50953
vt 0.40888 0.57117
vt 0.40219 0.50953
vt 0.48284 0.39817
vt 0.47615 0.45981
vt 0.46946 0.39817
vt 0.51766 0.27397
vt 0.51098 0.33561
vt 0.50429 0.27397
vt 0.51766 0.14538
vt 0.51098 0.20702
vt 0.50429 0.14538
vt 0.48284 0.02118
vt 0.47615 0.08282
vt 0.46946 0.02118
vt 0.41557 -0.09018
vt 0.40888 -0.02854
vt 0.40219 -0.09018
vt 0.32043 -0.18111
vt 0.31375 -0.11947
vt 0.30706 -0.18111
vt 0.20392 -0.24540
vt 0.19723 -0.18376
vt 0.19054 -0.24540
vt 0.07396 -0.27868
vt 0.06727 -0.21704
vt 0.06058 -0.27868
vt -0.06058 -0.27868
vt -0.06727 -0.21704
vt -0.07396 -0.27868
vt -0.19054 -0.24540
vt -0.19723 -0.18376
vt -0.20392 -0.24540
vt -0.30706 -0.18111
vt -0.31375 -0.11947
vt -0.32043 -0.18111
vt 0.36131 0.00409
vt 0.45584 0.05796
vt 0.42858 -0.01412
vt 0.55854 -0.02530
vt 0.46341 -0.03688
vt 0.52372 -0.04807
vt 0.45645 -0.05809
vt 0.26618 -0.06628
vt 0.14966 -0.07207
vt 0.11484 -0.07507
vt -0.11484 -0.07507
vt -0.14966 -0.07207
vt -0.26618 -0.06628
vt -0.45645 -0.05809
vt -0.52372 -0.04807
vt -0.46341 -0.03688
vt -0.55854 -0.02530
vt -0.42858 -0.01412
vt -0.36131 -0.00409
vt -0.36131 0.00409
vt -0.24480 0.00988
vt -0.01970 0.01288
vt 0.01970 0.01288
vt 0.24480 0.00988
vt 0.24419 0.08290
vt 0.36071 0.07054
vt 0.36192 0.05306
vt 0.42919 0.03164
vt 0.46401 0.00776
vt 0.55794 -0.01696
vt 0.52311 -0.04084
vt 0.45584 -0.06225
vt 0.26678 -0.07973
vt 0.15027 -0.09210
vt 0.02031 -0.09849
vt -0.02031 -0.09849
vt -0.15027 -0.09210
vt -0.26678 -0.07973
vt -0.45584 -0.06225
vt -0.52311 -0.04084
vt -0.55794 -0.01696
vt -0.46401 0.00776
vt -0.42919 0.03164
vt -0.36192 0.05306
vt -0.36071 0.07054
vt -0.24419 0.08290
vt -0.11423 0.08930
vt 0.11423 0.08930
vt 0.11294 0.16470
vt 0.15156 0.15496
vt 0.26808 0.13612
vt 0.45455 0.10949
vt 0.52182 0.07687
vt 0.55664 0.04048
vt 0.46531 0.00281
vt 0.43049 -0.03357
vt 0.36321 -0.06620
vt 0.35941 -0.09283
vt 0.24290 -0.11167
vt 0.11294 -0.12141
vt -0.11294 -0.12141
vt -0.24290 -0.11167
vt -0.35941 -0.09283
vt -0.36321 -0.06620
vt -0.43049 -0.03357
vt -0.46531 0.00281
vt -0.55664 0.04048
vt -0.52182 0.07687
vt -0.45455 0.10949
vt -0.26808 0.13612
vt -0.15156 0.15496
vt -0.02160 0.16470
vt -0.11097 0.23846
vt 0.11097 0.23846
vt 0.15353 0.22544
vt 0.35744 0.20029
vt 0.36518 0.16471
vt 0.51985 0.12115
vt 0.46728 0.07255
vt 0.55467 0.02224
vt 0.51985 -0.02635
vt 0.45258 -0.06992
vt 0.27005 -0.10549
vt 0.24092 -0.13065
vt 0.02358 -0.14366
vt -0.02358 -0.14366
vt -0.24092 -0.13065
vt -0.27005 -0.10549
vt -0.45258 -0.06992
vt -0.43246 -0.02635
vt -0.55467 0.02224
vt -0.46728 0.07255
vt -0.43246 0.12115
vt -0.36518 0.16471
vt -0.35744 0.20029
vt -0.15353 0.22544
vt -0.15616 0.29375
vt -0.02621 0.30994
vt 0.02621 0.30994
vt 0.15616 0.29375
vt 0.27268 0.26248
vt 0.44995 0.21826
vt 0.51722 0.16410
vt 0.55204 0.10370
vt 0.46991 0.04116
vt 0.43509 -0.01925
vt 0.36782 -0.07341
vt 0.35481 -0.11763
vt 0.23829 -0.14890
vt 0.10834 -0.16508
vt -0.10834 -0.16508
vt -0.23829 -0.14890
vt -0.35481 -0.11763
vt -0.36782 -0.07341
vt -0.43509 -0.01925
vt -0.46991 0.04116
vt -0.55204 0.10370
vt -0.51722 0.16410
vt -0.44995 0.21826
vt -0.27268 0.26248
vt -0.35154 0.32218
vt -0.23502 0.35930
vt -0.10507 0.37852
vt 0.10507 0.37852
vt 0.23502 0.35930
vt 0.35154 0.32218
vt 0.37109 0.26967
vt 0.43836 0.20536
vt 0.47318 0.13363
vt 0.54877 0.05938
vt 0.51395 -0.01235
vt 0.44668 -0.07666
vt 0.27595 -0.12917
vt 0.15943 -0.16630
vt 0.02948 -0.18551
vt -0.02948 -0.18551
vt -0.15943 -0.16630
vt -0.27595 -0.12917
vt -0.44668 -0.07666
vt -0.51395 -0.01235
vt -0.54877 0.05938
vt -0.47318 0.13363
vt -0.43836 0.20536
vt -0.37109 0.26967
vt -0.37497 0.31848
vt -0.34766 0.37884
vt -0.16331 0.42153
vt -0.03336 0.44362
vt 0.03336 0.44362
vt 0.16331 0.42153
vt 0.34766 0.37884
vt 0.37497 0.31848
vt 0.51007 0.24455
vt 0.54489 0.16210
vt 0.47706 0.07673
vt 0.44224 -0.00573
vt 0.44280 -0.07966
vt 0.27983 -0.14002
vt 0.23114 -0.18270
vt 0.10119 -0.20479
vt -0.10119 -0.20479
vt -0.23114 -0.18270
vt -0.27983 -0.14002
vt -0.44280 -0.07966
vt -0.44224 -0.00573
vt -0.47706 0.07673
vt -0.54489 0.16210
vt -0.51007 0.24455
vt -0.44669 0.28133
vt -0.37942 0.36427
vt -0.34321 0.43199
vt -0.22669 0.47987
vt -0.09673 0.50466
vt 0.09673 0.50466
vt 0.22669 0.47987
vt 0.34321 0.43199
vt 0.37942 0.36427
vt 0.44669 0.28133
vt 0.48151 0.18883
vt 0.54043 0.09306
vt 0.50561 0.00056
vt 0.43834 -0.08238
vt 0.28429 -0.15010
vt 0.16777 -0.19798
vt 0.03781 -0.22277
vt -0.03781 -0.22277
vt -0.16777 -0.19798
vt -0.28429 -0.15010
vt -0.43834 -0.08238
vt -0.50561 0.00056
vt -0.54043 0.09306
vt -0.48151 0.18883
vt -0.48651 0.21359
vt -0.50062 0.31537
vt -0.38442 0.40663
vt -0.33821 0.48114
vt -0.17277 0.53383
vt -0.09173 0.56110
vt 0.09173 0.56110
vt 0.17277 0.53383
vt 0.33821 0.48114
vt 0.43335 0.40663
vt 0.50062 0.31537
vt 0.48651 0.21359
vt 0.53544 0.10822
vt 0.45169 0.00644
vt 0.43335 -0.08482
vt 0.33821 -0.15933
vt 0.22169 -0.21202
vt 0.04281 -0.23929
vt -0.04281 -0.23929
vt -0.22169 -0.21202
vt -0.28928 -0.15933
vt -0.43335 -0.08482
vt -0.45169 0.00644
vt -0.53544 0.10822
vt -0.49200 0.12207
vt -0.52995 0.23617
vt -0.45718 0.34637
vt -0.42785 0.44519
vt -0.29477 0.52586
vt -0.21620 0.58291
vt -0.04830 0.61244
vt 0.04830 0.61244
vt 0.21620 0.58291
vt 0.29477 0.52586
vt 0.42785 0.44519
vt 0.45718 0.34637
vt 0.52995 0.23617
vt 0.49200 0.12207
vt 0.49512 0.01186
vt 0.38991 -0.08695
vt 0.33272 -0.16763
vt 0.17826 -0.22467
vt 0.08624 -0.25420
vt -0.08624 -0.25420
vt -0.17826 -0.22467
vt -0.33272 -0.16763
vt -0.38991 -0.08695
vt -0.49512 0.01186
vt -0.48918 0.01679
vt -0.49795 0.13449
vt -0.52400 0.25635
vt -0.46312 0.37406
vt -0.42191 0.47959
vt -0.30072 0.56576
vt -0.21026 0.62668
vt -0.05424 0.65822
vt 0.05424 0.65822
vt 0.21026 0.62668
vt 0.30072 0.56576
vt 0.42191 0.47959
vt 0.46312 0.37406
vt 0.52400 0.25635
vt 0.49795 0.13449
vt 0.48918 0.01679
vt 0.39585 -0.08874
vt 0.32678 -0.17491
vt 0.18420 -0.23584
vt 0.08030 -0.26738
vt -0.08030 -0.26738
vt -0.18420 -0.23584
vt -0.32678 -0.17491
vt -0.39585 -0.08874
vt 0.09541 0.00000
vt 0.09541 0.58948
vt 0.00000 0.58948
vt 0.19082 0.00000
vt 0.19082 0.58948
vt 0.28622 0.00000
vt 0.28622 0.58948
vt 0.38163 0.00000
vt 0.38163 0.58948
vt 0.47704 0.00000
vt 0.47704 0.58948
vt 0.57245 0.00000
vt 0.57245 0.58948
vt 0.66786 0.00000
vt 0.66786 0.58948
vt 0.76326 0.00000
vt 0.76326 0.58948
vt 0.85867 0.00000
vt 0.85867 0.58948
vt 0.95408 0.00000
vt 0.95408 0.58948
vt 1.04949 0.00000
vt 1.04949 0.58948
vt 1.14490 0.00000
vt 1.14490 0.58948
vt 1.24030 0.00000
vt 1.24030 0.58948
vt 1.33571 0.00000
vt 1.33571 0.58948
vt 1.43112 0.00000
vt 1.43112 0.58948
vt 1.52653 0.00000
vt 1.52653 0.58948
vt 1.62193 0.00000
vt 1.62193 0.58948
vt 1.71734 0.00000
vt 1.71734 0.58948
vt 1.81275 0.00000
vt 1.81275 0.58948
vt 1.90816 0.00000
vt 1.90816 0.58948
vt 2.00357 0.00000
vt 2.00357 0.58948
vt 2.09897 0.00000
vt 2.09897 0.58948
vt 2.19438 0.00000
vt 2.19438 0.58948
vt 2.28979 0.00000
vt 2.28979 0.58948
vt -0.25769 -0.27751
vt 0.25769 -0.27751
vt 0.25769 0.27751
vt 0.00000 0.00000
vt 0.35201 0.10158
vt 0.31561 0.19623
vt 0.36443 0.00000
vt 0.18222 0.33988
vt 0.09432 0.37909
vt -0.09432 0.37909
vt -0.18222 0.33988
vt -0.25769 0.27751
vt -0.31561 0.19623
vt -0.35201 0.10158
vt -0.35201 -0.10158
vt -0.36443 0.00000
vt -0.31561 -0.19623
vt -0.18222 -0.33988
vt -0.09432 -0.37909
vt 0.00000 0.39246
vt 0.09432 -0.37909
vt 0.18222 -0.33988
vt 0.31561 -0.19623
vt 0.35201 -0.10158
vt 0.00000 -0.39246
vt 13.91940 13.91940
vt -13.91940 13.91940
vt -13.91940 -13.91940
vt -19.01430 -5.09486
vt -19.68500 0.00000
vt -17.04770 -9.84252
vt -9.84252 -17.04770
vt -5.09486 -19.01430
vt 5.09486 -19.01430
vt 9.84252 -17.04770
vt 13.91940 -13.91940
vt 17.04770 -9.84252
vt 19.01430 -5.09486
vt 19.01430 5.09486
vt 19.68500 0.00000
vt 17.04770 9.84252
vt 9.84252 17.04770
vt 5.09486 19.01430
vt -0.00000 -19.68500
vt -5.09486 19.01430
vt -9.84252 17.04770
vt -17.04770 9.84252
vt -19.01430 5.09486
vt 0.00000 19.68500
# 1226 texture vertices

vn 0.02634 -0.99936 0.02424
vn 0.00000 -0.99649 0.08371
vn -0.25779 -0.96149 0.09526
vn -0.21613 -0.97589 0.03027
vn 0.25875 -0.96547 0.03030
vn 0.25779 -0.96149 0.09526
vn 0.51587 -0.85597 0.03461
vn 0.47457 -0.87427 0.10217
vn 0.72528 -0.68803 0.02421
vn 0.70389 -0.70389 0.09533
vn 0.87478 -0.48329 0.03462
vn 0.87427 -0.47457 0.10217
vn 0.97589 -0.21613 0.03027
vn 0.96149 -0.25779 0.09526
vn 0.99936 0.02633 0.02424
vn 0.99649 0.00000 0.08371
vn 0.96547 0.25875 0.03030
vn 0.96149 0.25779 0.09526
vn 0.85598 0.51586 0.03462
vn 0.87427 0.47457 0.10217
vn 0.68802 0.72529 0.02422
vn 0.70389 0.70389 0.09533
vn 0.48329 0.87478 0.03462
vn 0.47457 0.87427 0.10217
vn 0.21613 0.97589 0.03027
vn 0.25779 0.96149 0.09526
vn -0.02634 0.99936 0.02424
vn 0.00000 0.99649 0.08371
vn -0.25875 0.96547 0.03030
vn -0.25779 0.96149 0.09526
vn -0.51586 0.85598 0.03462
vn -0.47457 0.87427 0.10217
vn -0.72529 0.68802 0.02422
vn -0.70389 0.70389 0.09533
vn -0.87477 0.48329 0.03462
vn -0.87427 0.47457 0.10217
vn -0.97590 0.21613 0.03027
vn -0.96149 0.25779 0.09526
vn -0.99936 -0.02634 0.02424
vn -0.99649 0.00000 0.08371
vn -0.96547 -0.25875 0.03030
vn -0.96149 -0.25779 0.09526
vn -0.85597 -0.51587 0.03461
vn -0.87427 -0.47457 0.10217
vn -0.68803 -0.72528 0.02421
vn -0.70389 -0.70389 0.09533
vn -0.48329 -0.87478 0.03462
vn -0.47457 -0.87427 0.10217
vn -0.29683 -0.94062 0.16469
vn -0.51617 -0.84182 0.15783
vn 0.00000 -0.98632 0.16485
vn 0.29683 -0.94062 0.16469
vn 0.53014 -0.83176 0.16469
vn 0.69743 -0.69743 0.16488
vn 0.83176 -0.53014 0.16469
vn 0.94062 -0.29683 0.16469
vn 0.98632 0.00000 0.16485
vn 0.94062 0.29683 0.16469
vn 0.83176 0.53014 0.16469
vn 0.69743 0.69743 0.16488
vn 0.53014 0.83176 0.16469
vn 0.29683 0.94062 0.16469
vn 0.00000 0.98632 0.16485
vn -0.29683 0.94062 0.16469
vn -0.53014 0.83176 0.16469
vn -0.69743 0.69743 0.16488
vn -0.83176 0.53014 0.16469
vn -0.94062 0.29683 0.16469
vn -0.98632 0.00000 0.16485
vn -0.94062 -0.29683 0.16469
vn -0.83176 -0.53014 0.16469
vn -0.67810 -0.71462 0.17178
vn -0.48739 -0.84420 0.22310
vn -0.69939 -0.67332 0.23978
vn -0.23341 -0.94233 0.23984
vn 0.00000 -0.97202 0.23488
vn 0.23341 -0.94233 0.23984
vn 0.46433 -0.85589 0.22773
vn 0.68734 -0.68734 0.23481
vn 0.86236 -0.44865 0.23463
vn 0.94908 -0.21020 0.23467
vn 0.97202 0.00000 0.23488
vn 0.94233 0.23341 0.23984
vn 0.85589 0.46433 0.22773
vn 0.68734 0.68734 0.23481
vn 0.46433 0.85589 0.22773
vn 0.23341 0.94233 0.23984
vn 0.00000 0.97202 0.23488
vn -0.23341 0.94233 0.23984
vn -0.46433 0.85589 0.22773
vn -0.68734 0.68734 0.23481
vn -0.86236 0.44865 0.23463
vn -0.94908 0.21020 0.23467
vn -0.97202 0.00000 0.23488
vn -0.94233 -0.23341 0.23984
vn -0.85589 -0.46433 0.22773
vn -0.67333 -0.67333 0.30537
vn -0.81709 -0.49215 0.30025
vn -0.49215 -0.81709 0.30025
vn -0.26970 -0.91090 0.31227
vn 0.00000 -0.95225 0.30532
vn 0.26970 -0.91090 0.31227
vn 0.49215 -0.81709 0.30025
vn 0.67333 -0.67333 0.30537
vn 0.80309 -0.51184 0.30508
vn 0.90820 -0.28656 0.30504
vn 0.95225 0.00000 0.30532
vn 0.91090 0.26970 0.31227
vn 0.81709 0.49215 0.30025
vn 0.67333 0.67333 0.30537
vn 0.49215 0.81709 0.30025
vn 0.26970 0.91090 0.31227
vn 0.00000 0.95225 0.30532
vn -0.26970 0.91090 0.31227
vn -0.49215 0.81709 0.30025
vn -0.67333 0.67333 0.30537
vn -0.80309 0.51184 0.30508
vn -0.90820 0.28656 0.30504
vn -0.95225 0.00000 0.30532
vn -0.91090 -0.26970 0.31227
vn -0.82202 -0.42769 0.37598
vn -0.90471 -0.20035 0.37597
vn -0.65512 -0.65512 0.37633
vn -0.42769 -0.82202 0.37598
vn -0.20035 -0.90471 0.37597
vn 0.00000 -0.92649 0.37631
vn 0.20035 -0.90471 0.37597
vn 0.42769 -0.82202 0.37598
vn 0.65512 -0.65512 0.37633
vn 0.82202 -0.42769 0.37598
vn 0.90471 -0.20035 0.37597
vn 0.92649 0.00000 0.37631
vn 0.90471 0.20035 0.37597
vn 0.82202 0.42769 0.37598
vn 0.65512 0.65512 0.37633
vn 0.42769 0.82202 0.37598
vn 0.20035 0.90471 0.37597
vn 0.00000 0.92649 0.37631
vn -0.20035 0.90471 0.37597
vn -0.42769 0.82202 0.37598
vn -0.65512 0.65512 0.37633
vn -0.82202 0.42769 0.37598
vn -0.90471 0.20035 0.37597
vn -0.92649 0.00000 0.37631
vn -0.85669 -0.24727 0.45271
vn -0.90008 0.00000 0.43572
vn -0.75417 -0.48075 0.44733
vn -0.63229 -0.63229 0.44769
vn -0.48075 -0.75418 0.44732
vn -0.24727 -0.85669 0.45271
vn 0.00000 -0.90008 0.43572
vn 0.24727 -0.85669 0.45271
vn 0.48075 -0.75418 0.44732
vn 0.63229 -0.63229 0.44769
vn 0.75417 -0.48075 0.44733
vn 0.85669 -0.24727 0.45271
vn 0.90008 0.00000 0.43572
vn 0.85669 0.24727 0.45271
vn 0.75416 0.48076 0.44734
vn 0.63227 0.63227 0.44773
vn 0.48073 0.75415 0.44738
vn 0.24729 0.85667 0.45272
vn 0.00000 0.90008 0.43572
vn -0.24729 0.85667 0.45272
vn -0.48073 0.75415 0.44738
vn -0.63227 0.63227 0.44773
vn -0.75416 0.48076 0.44734
vn -0.85669 0.24727 0.45271
vn -0.86179 0.00000 0.50726
vn -0.82672 0.19883 0.52631
vn -0.82672 -0.19883 0.52631
vn -0.75832 -0.39455 0.51892
vn -0.60430 -0.60432 0.51925
vn -0.39454 -0.75832 0.51892
vn -0.19883 -0.82672 0.52631
vn 0.00000 -0.86179 0.50726
vn 0.19883 -0.82672 0.52631
vn 0.39454 -0.75832 0.51892
vn 0.60430 -0.60432 0.51925
vn 0.75832 -0.39455 0.51892
vn 0.82672 -0.19883 0.52631
vn 0.86179 0.00000 0.50726
vn 0.82672 0.19883 0.52631
vn 0.75830 0.39458 0.51892
vn 0.60429 0.60433 0.51925
vn 0.39459 0.75830 0.51892
vn 0.19889 0.82670 0.52631
vn 0.00000 0.86179 0.50726
vn -0.19889 0.82670 0.52631
vn -0.39459 0.75830 0.51892
vn -0.60429 0.60433 0.51925
vn -0.75830 0.39458 0.51892
vn -0.77167 0.22298 0.59566
vn -0.69217 0.42494 0.58338
vn -0.81548 0.00000 0.57878
vn -0.77167 -0.22299 0.59565
vn -0.69217 -0.42491 0.58339
vn -0.56441 -0.56441 0.60240
vn -0.42491 -0.69217 0.58340
vn -0.22298 -0.77167 0.59566
vn 0.01468 -0.81052 0.58553
vn 0.24291 -0.76977 0.59029
vn 0.42491 -0.69217 0.58340
vn 0.56441 -0.56441 0.60240
vn 0.69217 -0.42492 0.58339
vn 0.77167 -0.22299 0.59565
vn 0.81052 0.01468 0.58553
vn 0.76977 0.24291 0.59029
vn 0.69217 0.42494 0.58338
vn 0.56442 0.56442 0.60238
vn 0.42493 0.69221 0.58334
vn 0.22300 0.77167 0.59564
vn 0.00000 0.81548 0.57878
vn -0.22300 0.77167 0.59564
vn -0.42493 0.69221 0.58334
vn -0.56442 0.56442 0.60238
vn -0.64989 0.37513 0.66099
vn -0.53060 0.53060 0.66101
vn -0.72483 0.19420 0.66099
vn -0.75038 0.00001 0.66100
vn -0.72483 -0.19423 0.66099
vn -0.64991 -0.37515 0.66097
vn -0.53062 -0.53062 0.66098
vn -0.37513 -0.64992 0.66097
vn -0.19420 -0.72483 0.66099
vn -0.01470 -0.74591 0.66589
vn 0.17591 -0.73586 0.65388
vn 0.37513 -0.64992 0.66097
vn 0.53062 -0.53062 0.66098
vn 0.64991 -0.37515 0.66097
vn 0.72483 -0.19423 0.66099
vn 0.74591 -0.01469 0.66589
vn 0.73586 0.17591 0.65388
vn 0.64989 0.37513 0.66099
vn 0.53060 0.53060 0.66101
vn 0.37515 0.64987 0.66100
vn 0.19420 0.72483 0.66099
vn 0.00000 0.75038 0.66100
vn -0.19420 0.72483 0.66099
vn -0.37515 0.64987 0.66100
vn -0.49209 0.49209 0.71811
vn -0.33613 0.58207 0.74041
vn -0.58209 0.33606 0.74043
vn -0.67226 0.18008 0.71808
vn -0.67216 0.00000 0.74041
vn -0.67227 -0.18005 0.71808
vn -0.58210 -0.33604 0.74043
vn -0.49211 -0.49211 0.71809
vn -0.33604 -0.58210 0.74043
vn -0.18004 -0.67228 0.71807
vn 0.00000 -0.67216 0.74041
vn 0.18004 -0.67228 0.71807
vn 0.33604 -0.58210 0.74043
vn 0.49211 -0.49211 0.71809
vn 0.58210 -0.33604 0.74043
vn 0.67227 -0.18005 0.71808
vn 0.67216 0.00000 0.74041
vn 0.67226 0.18008 0.71808
vn 0.58209 0.33606 0.74043
vn 0.49209 0.49209 0.71811
vn 0.33613 0.58207 0.74041
vn 0.18013 0.67223 0.71809
vn 0.00000 0.67216 0.74041
vn -0.18013 0.67223 0.71809
vn -0.30389 0.52610 0.79427
vn -0.16079 0.59995 0.78372
vn -0.43926 0.43912 0.78372
vn -0.52611 0.30383 0.79429
vn -0.59992 0.16083 0.78373
vn -0.60756 0.00000 0.79427
vn -0.59995 -0.16074 0.78373
vn -0.52607 -0.30387 0.79430
vn -0.43917 -0.43917 0.78374
vn -0.30387 -0.52607 0.79430
vn -0.16074 -0.59995 0.78373
vn 0.00000 -0.60756 0.79427
vn 0.16074 -0.59995 0.78373
vn 0.30387 -0.52607 0.79430
vn 0.43917 -0.43917 0.78374
vn 0.52607 -0.30387 0.79430
vn 0.59995 -0.16074 0.78373
vn 0.60756 0.00000 0.79427
vn 0.59992 0.16083 0.78373
vn 0.52611 0.30383 0.79429
vn 0.43927 0.43912 0.78372
vn 0.30389 0.52610 0.79427
vn 0.16079 0.59995 0.78372
vn 0.00000 0.60756 0.79427
vn 0.00000 -0.00000 1.00000
vn 0.21624 -0.97634 0.00000
vn -0.04385 -0.99904 0.00000
vn -0.30093 -0.95365 0.00000
vn -0.53746 -0.84329 -0.00001
vn -0.73746 -0.67539 -0.00001
vn -0.88711 -0.46155 0.00000
vn -0.97634 -0.21624 0.00000
vn -0.99904 0.04384 0.00000
vn -0.95364 0.30094 0.00000
vn -0.84330 0.53745 0.00000
vn -0.67540 0.73745 0.00000
vn -0.46153 0.88712 0.00000
vn -0.21624 0.97634 0.00000
vn 0.04385 0.99904 0.00000
vn 0.30093 0.95365 0.00000
vn 0.53743 0.84331 0.00000
vn 0.73745 0.67540 0.00000
vn 0.88712 0.46154 0.00000
vn 0.97634 0.21625 0.00000
vn 0.99904 -0.04385 0.00000
vn 0.95365 -0.30093 0.00000
vn 0.84329 -0.53745 -0.00000
vn 0.67540 -0.73745 -0.00001
vn 0.46156 -0.88711 0.00000
vn 0.00000 0.00000 -1.00000
vn 0.00000 0.00000 1.00000
# 315 normal vertices

g obj1
usemtl Metal_Aluminum_Anodized
f 2/1/2 3/2/3 4/3/4
f 2/4/2 1/5/1 5/6/5
f 7/7/7 8/8/8 6/9/6
f 10/10/10 8/11/8 7/12/7
f 11/13/11 12/14/12 10/15/10
f 14/16/14 12/17/12 11/18/11
f 16/19/16 14/20/14 13/21/13
f 17/22/17 18/23/18 16/24/16
f 19/25/19 20/26/20 18/27/18
f 22/28/22 20/29/20 19/30/19
f 23/31/23 24/32/24 22/33/22
f 26/34/26 24/35/24 23/36/23
f 28/37/28 26/38/26 25/39/25
f 29/40/29 30/41/30 28/42/28
f 31/43/31 32/44/32 30/45/30
f 34/46/34 32/47/32 31/48/31
f 35/49/35 36/50/36 34/51/34
f 38/52/38 36/53/36 35/54/35
f 40/55/40 38/56/38 37/57/37
f 41/58/41 42/59/42 40/60/40
f 43/61/43 44/62/44 42/63/42
f 46/64/46 44/65/44 43/66/43
f 47/67/47 48/68/48 46/69/46
f 3/70/3 48/71/48 47/72/47
f 49/73/49 50/74/50 48/75/48
f 51/76/51 49/77/49 3/78/3
f 6/79/6 52/80/52 51/81/51
f 8/82/8 53/83/53 52/84/52
f 10/85/10 54/86/54 53/87/53
f 55/88/55 54/89/54 10/90/10
f 56/91/56 55/92/55 12/93/12
f 57/94/57 56/95/56 14/96/14
f 18/97/18 58/98/58 57/99/57
f 20/100/20 59/101/59 58/102/58
f 22/103/22 60/104/60 59/105/59
f 61/106/61 60/107/60 22/108/22
f 62/109/62 61/110/61 24/111/24
f 63/112/63 62/113/62 26/114/26
f 30/115/30 64/116/64 63/117/63
f 32/118/32 65/119/65 64/120/64
f 34/121/34 66/122/66 65/123/65
f 67/124/67 66/125/66 34/126/34
f 68/127/68 67/128/67 36/129/36
f 69/130/69 68/131/68 38/132/38
f 42/133/42 70/134/70 69/135/69
f 44/136/44 71/137/71 70/138/70
f 46/139/46 72/140/72 71/141/71
f 50/142/50 72/143/72 46/144/46
f 73/145/73 74/146/74 72/147/72
f 49/148/49 75/149/75 73/150/73
f 51/151/51 76/152/76 75/153/75
f 77/154/77 76/155/76 51/156/51
f 78/157/78 77/158/77 52/159/52
f 79/160/79 78/161/78 53/162/53
f 55/163/55 80/164/80 79/165/79
f 56/166/56 81/167/81 80/168/80
f 57/169/57 82/170/82 81/171/81
f 83/172/83 82/173/82 57/174/57
f 84/175/84 83/176/83 58/177/58
f 85/178/85 84/179/84 59/180/59
f 61/181/61 86/182/86 85/183/85
f 62/184/62 87/185/87 86/186/86
f 63/187/63 88/188/88 87/189/87
f 89/190/89 88/191/88 63/192/63
f 90/193/90 89/194/89 64/195/64
f 91/196/91 90/197/90 65/198/65
f 67/199/67 92/200/92 91/201/91
f 68/202/68 93/203/93 92/204/92
f 69/205/69 94/206/94 93/207/93
f 95/208/95 94/209/94 69/210/69
f 96/211/96 95/212/95 70/213/70
f 74/214/74 96/215/96 71/216/71
f 74/217/74 97/218/97 98/219/98
f 99/220/99 97/221/97 74/222/74
f 75/223/75 100/224/100 99/225/99
f 101/226/101 100/227/100 75/228/75
f 77/229/77 102/230/102 101/231/101
f 103/232/103 102/233/102 77/234/77
f 79/235/79 104/236/104 103/237/103
f 105/238/105 104/239/104 79/240/79
f 106/241/106 105/242/105 80/243/80
f 107/244/107 106/245/106 81/246/81
f 83/247/83 108/248/108 107/249/107
f 109/250/109 108/251/108 83/252/83
f 85/253/85 110/254/110 109/255/109
f 111/256/111 110/257/110 85/258/85
f 87/259/87 112/260/112 111/261/111
f 113/262/113 112/263/112 87/264/87
f 89/265/89 114/266/114 113/267/113
f 115/268/115 114/269/114 89/270/89
f 91/271/91 116/272/116 115/273/115
f 117/274/117 116/275/116 91/276/91
f 118/277/118 117/278/117 92/279/92
f 119/280/119 118/281/118 93/282/93
f 95/283/95 120/284/120 119/285/119
f 98/286/98 120/287/120 95/288/95
f 121/289/121 122/290/122 120/291/120
f 123/292/123 121/293/121 98/294/98
f 99/295/99 124/296/124 123/297/123
f 100/298/100 125/299/125 124/300/124
f 101/301/101 126/302/126 125/303/125
f 127/304/127 126/305/126 101/306/101
f 128/307/128 127/308/127 102/309/102
f 129/310/129 128/311/128 103/312/103
f 105/313/105 130/314/130 129/315/129
f 106/316/106 131/317/131 130/318/130
f 107/319/107 132/320/132 131/321/131
f 133/322/133 132/323/132 107/324/107
f 134/325/134 133/326/133 108/327/108
f 135/328/135 134/329/134 109/330/109
f 111/331/111 136/332/136 135/333/135
f 112/334/112 137/335/137 136/336/136
f 113/337/113 138/338/138 137/339/137
f 139/340/139 138/341/138 113/342/113
f 140/343/140 139/344/139 114/345/114
f 141/346/141 140/347/140 115/348/115
f 117/349/117 142/350/142 141/351/141
f 118/352/118 143/353/143 142/354/142
f 119/355/119 144/356/144 143/357/143
f 122/358/122 144/359/144 119/360/119
f 122/361/122 145/362/145 146/363/146
f 121/364/121 147/365/147 145/366/145
f 123/367/123 148/368/148 147/369/147
f 149/370/149 148/371/148 123/372/123
f 150/373/150 149/374/149 124/375/124
f 151/376/151 150/377/150 125/378/125
f 127/379/127 152/380/152 151/381/151
f 128/382/128 153/383/153 152/384/152
f 129/385/129 154/386/154 153/387/153
f 155/388/155 154/389/154 129/390/129
f 156/391/156 155/392/155 130/393/130
f 157/394/157 156/395/156 131/396/131
f 133/397/133 158/398/158 157/399/157
f 134/400/134 159/401/159 158/402/158
f 135/403/135 160/404/160 159/405/159
f 161/406/161 160/407/160 135/408/135
f 162/409/162 161/410/161 136/411/136
f 163/412/163 162/413/162 137/414/137
f 139/415/139 164/416/164 163/417/163
f 140/418/140 165/419/165 164/420/164
f 141/421/141 166/422/166 165/423/165
f 167/424/167 166/425/166 141/426/141
f 168/427/168 167/428/167 142/429/142
f 146/430/146 168/431/168 143/432/143
f 169/433/169 170/434/170 168/435/168
f 145/436/145 171/437/171 169/438/169
f 172/439/172 171/440/171 145/441/145
f 173/442/173 172/443/172 147/444/147
f 149/445/149 174/446/174 173/447/173
f 150/448/150 175/449/175 174/450/174
f 176/451/176 175/452/175 150/453/150
f 152/454/152 177/455/177 176/456/176
f 178/457/178 177/458/177 152/459/152
f 179/460/179 178/461/178 153/462/153
f 155/463/155 180/464/180 179/465/179
f 156/466/156 181/467/181 180/468/180
f 182/469/182 181/470/181 156/471/156
f 158/472/158 183/473/183 182/474/182
f 184/475/184 183/476/183 158/477/158
f 185/478/185 184/479/184 159/480/159
f 161/481/161 186/482/186 185/483/185
f 162/484/162 187/485/187 186/486/186
f 188/487/188 187/488/187 162/489/162
f 164/490/164 189/491/189 188/492/188
f 190/493/190 189/494/189 164/495/164
f 191/496/191 190/497/190 165/498/165
f 167/499/167 192/500/192 191/501/191
f 168/502/168 170/503/170 192/504/192
f 193/505/193 194/506/194 192/507/192
f 195/508/195 193/509/193 170/510/170
f 171/511/171 196/512/196 195/513/195
f 172/514/172 197/515/197 196/516/196
f 173/517/173 198/518/198 197/519/197
f 199/520/199 198/521/198 173/522/173
f 200/523/200 199/524/199 174/525/174
f 201/526/201 200/527/200 175/528/175
f 177/529/177 202/530/202 201/531/201
f 178/532/178 203/533/203 202/534/202
f 179/535/179 204/536/204 203/537/203
f 205/538/205 204/539/204 179/540/179
f 206/541/206 205/542/205 180/543/180
f 207/544/207 206/545/206 181/546/181
f 183/547/183 208/548/208 207/549/207
f 184/550/184 209/551/209 208/552/208
f 185/553/185 210/554/210 209/555/209
f 211/556/211 210/557/210 185/558/185
f 212/559/212 211/560/211 186/561/186
f 213/562/213 212/563/212 187/564/187
f 189/565/189 214/566/214 213/567/213
f 190/568/190 215/569/215 214/570/214
f 191/571/191 216/572/216 215/573/215
f 194/574/194 216/575/216 191/576/191
f 217/577/217 218/578/218 216/579/216
f 193/580/193 219/581/219 217/582/217
f 220/583/220 219/584/219 193/585/193
f 196/586/196 221/587/221 220/588/220
f 222/589/222 221/590/221 196/591/196
f 198/592/198 223/593/223 222/594/222
f 224/595/224 223/596/223 198/597/198
f 200/598/200 225/599/225 224/600/224
f 226/601/226 225/602/225 200/603/200
f 227/604/227 226/605/226 201/606/201
f 228/607/228 227/608/227 202/609/202
f 204/610/204 229/611/229 228/612/228
f 230/613/230 229/614/229 204/615/204
f 206/616/206 231/617/231 230/618/230
f 232/619/232 231/620/231 206/621/206
f 233/622/233 232/623/232 207/624/207
f 234/625/234 233/626/233 208/627/208
f 210/628/210 235/629/235 234/630/234
f 236/631/236 235/632/235 210/633/210
f 212/634/212 237/635/237 236/636/236
f 238/637/238 237/638/237 212/639/212
f 214/640/214 239/641/239 238/642/238
f 240/643/240 239/644/239 214/645/214
f 216/646/216 218/647/218 240/648/240
f 241/649/241 242/650/242 240/651/240
f 217/652/217 243/653/243 241/654/241
f 244/655/244 243/656/243 217/657/217
f 220/658/220 245/659/245 244/660/244
f 246/661/246 245/662/245 220/663/220
f 222/664/222 247/665/247 246/666/246
f 248/667/248 247/668/247 222/669/222
f 224/670/224 249/671/249 248/672/248
f 250/673/250 249/674/249 224/675/224
f 226/676/226 251/677/251 250/678/250
f 252/679/252 251/680/251 226/681/226
f 228/682/228 253/683/253 252/684/252
f 254/685/254 253/686/253 228/687/228
f 230/688/230 255/689/255 254/690/254
f 256/691/256 255/692/255 230/693/230
f 232/694/232 257/695/257 256/696/256
f 258/697/258 257/698/257 232/699/232
f 234/700/234 259/701/259 258/702/258
f 260/703/260 259/704/259 234/705/234
f 236/706/236 261/707/261 260/708/260
f 262/709/262 261/710/261 236/711/236
f 238/712/238 263/713/263 262/714/262
f 264/715/264 263/716/263 238/717/238
f 240/718/240 242/719/242 264/720/264
f 242/721/242 265/722/265 266/723/266
f 267/724/267 265/725/265 242/726/242
f 243/727/243 268/728/268 267/729/267
f 269/730/269 268/731/268 243/732/243
f 245/733/245 270/734/270 269/735/269
f 271/736/271 270/737/270 245/738/245
f 247/739/247 272/740/272 271/741/271
f 273/742/273 272/743/272 247/744/247
f 249/745/249 274/746/274 273/747/273
f 275/748/275 274/749/274 249/750/249
f 251/751/251 276/752/276 275/753/275
f 277/754/277 276/755/276 251/756/251
f 253/757/253 278/758/278 277/759/277
f 279/760/279 278/761/278 253/762/253
f 255/763/255 280/764/280 279/765/279
f 281/766/281 280/767/280 255/768/255
f 257/769/257 282/770/282 281/771/281
f 283/772/283 282/773/282 257/774/257
f 259/775/259 284/776/284 283/777/283
f 285/778/285 284/779/284 259/780/259
f 261/781/261 286/782/286 285/783/285
f 287/784/287 286/785/286 261/786/261
f 263/787/263 288/788/288 287/789/287
f 266/790/266 288/791/288 263/792/263
f 266/793/266 289/794/289 288/795/288
f 265/796/265 289/797/289 266/798/266
f 267/799/267 289/800/289 265/801/265
f 268/802/268 289/803/289 267/804/267
f 269/805/269 289/806/289 268/807/268
f 270/808/270 289/809/289 269/810/269
f 271/811/271 289/812/289 270/813/270
f 272/814/272 289/815/289 271/816/271
f 273/817/273 289/818/289 272/819/272
f 274/820/274 289/821/289 273/822/273
f 275/823/275 289/824/289 274/825/274
f 276/826/276 289/827/289 275/828/275
f 277/829/277 289/830/289 276/831/276
f 278/832/278 289/833/289 277/834/277
f 279/835/279 289/836/289 278/837/278
f 280/838/280 289/839/289 279/840/279
f 281/841/281 289/842/289 280/843/280
f 282/844/282 289/845/289 281/846/281
f 283/847/283 289/848/289 282/849/282
f 284/850/284 289/851/289 283/852/283
f 285/853/285 289/854/289 284/855/284
f 286/856/286 289/857/289 285/858/285
f 287/859/287 289/860/289 286/861/286
f 288/862/288 289/863/289 287/864/287
f 1/865/1 2/1/2 4/3/4
f 6/866/6 2/4/2 5/6/5
f 5/867/5 7/7/7 6/9/6
f 9/868/9 10/10/10 7/12/7
f 9/869/9 11/13/11 10/15/10
f 13/870/13 14/16/14 11/18/11
f 15/871/15 16/19/16 13/21/13
f 15/872/15 17/22/17 16/24/16
f 17/873/17 19/25/19 18/27/18
f 21/874/21 22/28/22 19/30/19
f 21/875/21 23/31/23 22/33/22
f 25/876/25 26/34/26 23/36/23
f 27/877/27 28/37/28 25/39/25
f 27/878/27 29/40/29 28/42/28
f 29/879/29 31/43/31 30/45/30
f 33/880/33 34/46/34 31/48/31
f 33/881/33 35/49/35 34/51/34
f 37/882/37 38/52/38 35/54/35
f 39/883/39 40/55/40 37/57/37
f 39/884/39 41/58/41 40/60/40
f 41/885/41 43/61/43 42/63/42
f 45/886/45 46/64/46 43/66/43
f 45/887/45 47/67/47 46/69/46
f 4/888/4 3/70/3 47/72/47
f 3/889/3 49/73/49 48/75/48
f 2/890/2 51/76/51 3/78/3
f 2/891/2 6/79/6 51/81/51
f 6/892/6 8/82/8 52/84/52
f 8/893/8 10/85/10 53/87/53
f 12/894/12 55/88/55 10/90/10
f 14/895/14 56/91/56 12/93/12
f 16/896/16 57/94/57 14/96/14
f 16/897/16 18/97/18 57/99/57
f 18/898/18 20/100/20 58/102/58
f 20/899/20 22/103/22 59/105/59
f 24/900/24 61/106/61 22/108/22
f 26/901/26 62/109/62 24/111/24
f 28/902/28 63/112/63 26/114/26
f 28/903/28 30/115/30 63/117/63
f 30/904/30 32/118/32 64/120/64
f 32/905/32 34/121/34 65/123/65
f 36/906/36 67/124/67 34/126/34
f 38/907/38 68/127/68 36/129/36
f 40/908/40 69/130/69 38/132/38
f 40/909/40 42/133/42 69/135/69
f 42/910/42 44/136/44 70/138/70
f 44/911/44 46/139/46 71/141/71
f 48/912/48 50/142/50 46/144/46
f 50/913/50 73/145/73 72/147/72
f 50/914/50 49/148/49 73/150/73
f 49/915/49 51/151/51 75/153/75
f 52/916/52 77/154/77 51/156/51
f 53/917/53 78/157/78 52/159/52
f 54/918/54 79/160/79 53/162/53
f 54/919/54 55/163/55 79/165/79
f 55/920/55 56/166/56 80/168/80
f 56/921/56 57/169/57 81/171/81
f 58/922/58 83/172/83 57/174/57
f 59/923/59 84/175/84 58/177/58
f 60/924/60 85/178/85 59/180/59
f 60/925/60 61/181/61 85/183/85
f 61/926/61 62/184/62 86/186/86
f 62/927/62 63/187/63 87/189/87
f 64/928/64 89/190/89 63/192/63
f 65/929/65 90/193/90 64/195/64
f 66/930/66 91/196/91 65/198/65
f 66/931/66 67/199/67 91/201/91
f 67/932/67 68/202/68 92/204/92
f 68/933/68 69/205/69 93/207/93
f 70/934/70 95/208/95 69/210/69
f 71/935/71 96/211/96 70/213/70
f 72/936/72 74/214/74 71/216/71
f 96/937/96 74/217/74 98/219/98
f 73/938/73 99/220/99 74/222/74
f 73/939/73 75/223/75 99/225/99
f 76/940/76 101/226/101 75/228/75
f 76/941/76 77/229/77 101/231/101
f 78/942/78 103/232/103 77/234/77
f 78/943/78 79/235/79 103/237/103
f 80/944/80 105/238/105 79/240/79
f 81/945/81 106/241/106 80/243/80
f 82/946/82 107/244/107 81/246/81
f 82/947/82 83/247/83 107/249/107
f 84/948/84 109/250/109 83/252/83
f 84/949/84 85/253/85 109/255/109
f 86/950/86 111/256/111 85/258/85
f 86/951/86 87/259/87 111/261/111
f 88/952/88 113/262/113 87/264/87
f 88/953/88 89/265/89 113/267/113
f 90/954/90 115/268/115 89/270/89
f 90/955/90 91/271/91 115/273/115
f 92/956/92 117/274/117 91/276/91
f 93/957/93 118/277/118 92/279/92
f 94/958/94 119/280/119 93/282/93
f 94/959/94 95/283/95 119/285/119
f 96/960/96 98/286/98 95/288/95
f 98/961/98 121/289/121 120/291/120
f 97/962/97 123/292/123 98/294/98
f 97/963/97 99/295/99 123/297/123
f 99/964/99 100/298/100 124/300/124
f 100/965/100 101/301/101 125/303/125
f 102/966/102 127/304/127 101/306/101
f 103/967/103 128/307/128 102/309/102
f 104/968/104 129/310/129 103/312/103
f 104/969/104 105/313/105 129/315/129
f 105/970/105 106/316/106 130/318/130
f 106/971/106 107/319/107 131/321/131
f 108/972/108 133/322/133 107/324/107
f 109/973/109 134/325/134 108/327/108
f 110/974/110 135/328/135 109/330/109
f 110/975/110 111/331/111 135/333/135
f 111/976/111 112/334/112 136/336/136
f 112/977/112 113/337/113 137/339/137
f 114/978/114 139/340/139 113/342/113
f 115/979/115 140/343/140 114/345/114
f 116/980/116 141/346/141 115/348/115
f 116/981/116 117/349/117 141/351/141
f 117/982/117 118/352/118 142/354/142
f 118/983/118 119/355/119 143/357/143
f 120/984/120 122/358/122 119/360/119
f 144/985/144 122/361/122 146/363/146
f 122/986/122 121/364/121 145/366/145
f 121/987/121 123/367/123 147/369/147
f 124/988/124 149/370/149 123/372/123
f 125/989/125 150/373/150 124/375/124
f 126/990/126 151/376/151 125/378/125
f 126/991/126 127/379/127 151/381/151
f 127/992/127 128/382/128 152/384/152
f 128/993/128 129/385/129 153/387/153
f 130/994/130 155/388/155 129/390/129
f 131/995/131 156/391/156 130/393/130
f 132/996/132 157/394/157 131/396/131
f 132/997/132 133/397/133 157/399/157
f 133/998/133 134/400/134 158/402/158
f 134/999/134 135/403/135 159/405/159
f 136/1000/136 161/406/161 135/408/135
f 137/1001/137 162/409/162 136/411/136
f 138/1002/138 163/412/163 137/414/137
f 138/1003/138 139/415/139 163/417/163
f 139/1004/139 140/418/140 164/420/164
f 140/1005/140 141/421/141 165/423/165
f 142/1006/142 167/424/167 141/426/141
f 143/1007/143 168/427/168 142/429/142
f 144/1008/144 146/430/146 143/432/143
f 146/1009/146 169/433/169 168/435/168
f 146/1010/146 145/436/145 169/438/169
f 147/1011/147 172/439/172 145/441/145
f 148/1012/148 173/442/173 147/444/147
f 148/1013/148 149/445/149 173/447/173
f 149/1014/149 150/448/150 174/450/174
f 151/1015/151 176/451/176 150/453/150
f 151/1016/151 152/454/152 176/456/176
f 153/1017/153 178/457/178 152/459/152
f 154/1018/154 179/460/179 153/462/153
f 154/1019/154 155/463/155 179/465/179
f 155/1020/155 156/466/156 180/468/180
f 157/1021/157 182/469/182 156/471/156
f 157/1022/157 158/472/158 182/474/182
f 159/1023/159 184/475/184 158/477/158
f 160/1024/160 185/478/185 159/480/159
f 160/1025/160 161/481/161 185/483/185
f 161/1026/161 162/484/162 186/486/186
f 163/1027/163 188/487/188 162/489/162
f 163/1028/163 164/490/164 188/492/188
f 165/1029/165 190/493/190 164/495/164
f 166/1030/166 191/496/191 165/498/165
f 166/1031/166 167/499/167 191/501/191
f 167/1032/167 168/502/168 192/504/192
f 170/1033/170 193/505/193 192/507/192
f 169/1034/169 195/508/195 170/510/170
f 169/1035/169 171/511/171 195/513/195
f 171/1036/171 172/514/172 196/516/196
f 172/1037/172 173/517/173 197/519/197
f 174/1038/174 199/520/199 173/522/173
f 175/1039/175 200/523/200 174/525/174
f 176/1040/176 201/526/201 175/528/175
f 176/1041/176 177/529/177 201/531/201
f 177/1042/177 178/532/178 202/534/202
f 178/1043/178 179/535/179 203/537/203
f 180/1044/180 205/538/205 179/540/179
f 181/1045/181 206/541/206 180/543/180
f 182/1046/182 207/544/207 181/546/181
f 182/1047/182 183/547/183 207/549/207
f 183/1048/183 184/550/184 208/552/208
f 184/1049/184 185/553/185 209/555/209
f 186/1050/186 211/556/211 185/558/185
f 187/1051/187 212/559/212 186/561/186
f 188/1052/188 213/562/213 187/564/187
f 188/1053/188 189/565/189 213/567/213
f 189/1054/189 190/568/190 214/570/214
f 190/1055/190 191/571/191 215/573/215
f 192/1056/192 194/574/194 191/576/191
f 194/1057/194 217/577/217 216/579/216
f 194/1058/194 193/580/193 217/582/217
f 195/1059/195 220/583/220 193/585/193
f 195/1060/195 196/586/196 220/588/220
f 197/1061/197 222/589/222 196/591/196
f 197/1062/197 198/592/198 222/594/222
f 199/1063/199 224/595/224 198/597/198
f 199/1064/199 200/598/200 224/600/224
f 201/1065/201 226/601/226 200/603/200
f 202/1066/202 227/604/227 201/606/201
f 203/1067/203 228/607/228 202/609/202
f 203/1068/203 204/610/204 228/612/228
f 205/1069/205 230/613/230 204/615/204
f 205/1070/205 206/616/206 230/618/230
f 207/1071/207 232/619/232 206/621/206
f 208/1072/208 233/622/233 207/624/207
f 209/1073/209 234/625/234 208/627/208
f 209/1074/209 210/628/210 234/630/234
f 211/1075/211 236/631/236 210/633/210
f 211/1076/211 212/634/212 236/636/236
f 213/1077/213 238/637/238 212/639/212
f 213/1078/213 214/640/214 238/642/238
f 215/1079/215 240/643/240 214/645/214
f 215/1080/215 216/646/216 240/648/240
f 218/1081/218 241/649/241 240/651/240
f 218/1082/218 217/652/217 241/654/241
f 219/1083/219 244/655/244 217/657/217
f 219/1084/219 220/658/220 244/660/244
f 221/1085/221 246/661/246 220/663/220
f 221/1086/221 222/664/222 246/666/246
f 223/1087/223 248/667/248 222/669/222
f 223/1088/223 224/670/224 248/672/248
f 225/1089/225 250/673/250 224/675/224
f 225/1090/225 226/676/226 250/678/250
f 227/1091/227 252/679/252 226/681/226
f 227/1092/227 228/682/228 252/684/252
f 229/1093/229 254/685/254 228/687/228
f 229/1094/229 230/688/230 254/690/254
f 231/1095/231 256/691/256 230/693/230
f 231/1096/231 232/694/232 256/696/256
f 233/1097/233 258/697/258 232/699/232
f 233/1098/233 234/700/234 258/702/258
f 235/1099/235 260/703/260 234/705/234
f 235/1100/235 236/706/236 260/708/260
f 237/1101/237 262/709/262 236/711/236
f 237/1102/237 238/712/238 262/714/262
f 239/1103/239 264/715/264 238/717/238
f 239/1104/239 240/718/240 264/720/264
f 264/1105/264 242/721/242 266/723/266
f 241/1106/241 267/724/267 242/726/242
f 241/1107/241 243/727/243 267/729/267
f 244/1108/244 269/730/269 243/732/243
f 244/1109/244 245/733/245 269/735/269
f 246/1110/246 271/736/271 245/738/245
f 246/1111/246 247/739/247 271/741/271
f 248/1112/248 273/742/273 247/744/247
f 248/1113/248 249/745/249 273/747/273
f 250/1114/250 275/748/275 249/750/249
f 250/1115/250 251/751/251 275/753/275
f 252/1116/252 277/754/277 251/756/251
f 252/1117/252 253/757/253 277/759/277
f 254/1118/254 279/760/279 253/762/253
f 254/1119/254 255/763/255 279/765/279
f 256/1120/256 281/766/281 255/768/255
f 256/1121/256 257/769/257 281/771/281
f 258/1122/258 283/772/283 257/774/257
f 258/1123/258 259/775/259 283/777/283
f 260/1124/260 285/778/285 259/780/259
f 260/1125/260 261/781/261 285/783/285
f 262/1126/262 287/784/287 261/786/261
f 262/1127/262 263/787/263 287/789/287
f 264/1128/264 266/790/266 263/792/263
f 290/1129/290 5/1130/5 1/1131/1
f 313/1132/313 7/1133/7 5/1130/5
f 312/1134/312 9/1135/9 7/1133/7
f 311/1136/311 11/1137/11 9/1135/9
f 310/1138/310 13/1139/13 11/1137/11
f 309/1140/309 15/1141/15 13/1139/13
f 308/1142/308 17/1143/17 15/1141/15
f 307/1144/307 19/1145/19 17/1143/17
f 306/1146/306 21/1147/21 19/1145/19
f 305/1148/305 23/1149/23 21/1147/21
f 304/1150/304 25/1151/25 23/1149/23
f 303/1152/303 27/1153/27 25/1151/25
f 302/1154/302 29/1155/29 27/1153/27
f 301/1156/301 31/1157/31 29/1155/29
f 300/1158/300 33/1159/33 31/1157/31
f 299/1160/299 35/1161/35 33/1159/33
f 298/1162/298 37/1163/37 35/1161/35
f 297/1164/297 39/1165/39 37/1163/37
f 296/1166/296 41/1167/41 39/1165/39
f 295/1168/295 43/1169/43 41/1167/41
f 294/1170/294 45/1171/45 43/1169/43
f 293/1172/293 47/1173/47 45/1171/45
f 292/1174/292 4/1175/4 47/1173/47
f 291/1176/291 1/1177/1 4/1175/4
f 312/1178/314 294/1179/314 300/1180/314
f 291/1181/291 290/1129/290 1/1131/1
f 290/1129/290 313/1132/313 5/1130/5
f 313/1132/313 312/1134/312 7/1133/7
f 312/1134/312 311/1136/311 9/1135/9
f 311/1136/311 310/1138/310 11/1137/11
f 310/1138/310 309/1140/309 13/1139/13
f 309/1140/309 308/1142/308 15/1141/15
f 308/1142/308 307/1144/307 17/1143/17
f 307/1144/307 306/1146/306 19/1145/19
f 306/1146/306 305/1148/305 21/1147/21
f 305/1148/305 304/1150/304 23/1149/23
f 304/1150/304 303/1152/303 25/1151/25
f 303/1152/303 302/1154/302 27/1153/27
f 302/1154/302 301/1156/301 29/1155/29
f 301/1156/301 300/1158/300 31/1157/31
f 300/1158/300 299/1160/299 33/1159/33
f 299/1160/299 298/1162/298 35/1161/35
f 298/1162/298 297/1164/297 37/1163/37
f 297/1164/297 296/1166/296 39/1165/39
f 296/1166/296 295/1168/295 41/1167/41
f 295/1168/295 294/1170/294 43/1169/43
f 294/1170/294 293/1172/293 45/1171/45
f 293/1172/293 292/1174/292 47/1173/47
f 292/1174/292 291/1176/291 4/1175/4
f 298/1182/314 299/1183/314 300/1180/314
f 298/1182/314 300/1180/314 297/1184/314
f 300/1180/314 301/1185/314 302/1186/314
f 304/1187/314 305/1188/314 306/1189/314
f 306/1189/314 307/1190/314 308/1191/314
f 310/1192/314 312/1178/314 309/1193/314
f 310/1192/314 311/1194/314 312/1178/314
f 312/1178/314 313/1195/314 290/1196/314
f 300/1180/314 302/1186/314 303/1197/314
f 292/1198/314 293/1199/314 294/1179/314
f 294/1179/314 295/1200/314 296/1201/314
f 297/1184/314 300/1180/314 294/1179/314
f 303/1197/314 304/1187/314 306/1189/314
f 308/1191/314 309/1193/314 306/1189/314
f 309/1193/314 312/1178/314 306/1189/314
f 291/1202/314 292/1198/314 294/1179/314
f 306/1189/314 312/1178/314 300/1180/314
f 300/1180/314 303/1197/314 306/1189/314
f 312/1178/314 291/1202/314 294/1179/314
f 296/1201/314 297/1184/314 294/1179/314
f 312/1178/314 290/1196/314 291/1202/314
usemtl default
f 21/1203/315 33/1204/315 45/1205/315
f 41/1206/315 45/1205/315 39/1207/315
f 41/1206/315 43/1208/315 45/1205/315
f 45/1205/315 47/1209/315 4/1210/315
f 5/1211/315 7/1212/315 9/1213/315
f 9/1213/315 11/1214/315 13/1215/315
f 17/1216/315 21/1203/315 15/1217/315
f 17/1216/315 19/1218/315 21/1203/315
f 21/1203/315 23/1219/315 25/1220/315
f 45/1205/315 4/1210/315 1/1221/315
f 29/1222/315 31/1223/315 33/1204/315
f 33/1204/315 35/1224/315 37/1225/315
f 39/1207/315 45/1205/315 33/1204/315
f 1/1221/315 5/1211/315 9/1213/315
f 13/1215/315 15/1217/315 9/1213/315
f 15/1217/315 21/1203/315 9/1213/315
f 27/1226/315 29/1222/315 33/1204/315
f 21/1203/315 25/1220/315 27/1226/315
f 45/1205/315 1/1221/315 9/1213/315
f 9/1213/315 21/1203/315 45/1205/315
f 37/1225/315 39/1207/315 33/1204/315
f 21/1203/315 27/1226/315 33/1204/315
# 644 elements

